<svg width="6145" height="2988" viewBox="0 0 6145 2988" fill="none" xmlns="http://www.w3.org/2000/svg">
<path d="M1672.42 291V72.8182H1804.1V96.2557H1698.84V169.977H1797.28V193.415H1698.84V267.562H1805.8V291H1672.42ZM1994.47 294.409C1980.84 294.409 1968.8 290.964 1958.36 284.075C1947.92 277.115 1939.75 267.314 1933.86 254.672C1927.96 241.959 1925.01 226.938 1925.01 209.608C1925.01 192.42 1927.96 177.506 1933.86 164.864C1939.75 152.222 1947.95 142.456 1958.46 135.567C1968.98 128.678 1981.12 125.233 1994.9 125.233C2005.55 125.233 2013.97 127.009 2020.15 130.56C2026.4 134.04 2031.16 138.017 2034.42 142.491C2037.76 146.895 2040.35 150.517 2042.2 153.358H2044.33V72.8182H2069.47V291H2045.18V265.858H2042.2C2040.35 268.841 2037.73 272.605 2034.32 277.151C2030.91 281.625 2026.04 285.638 2019.72 289.189C2013.4 292.669 2004.98 294.409 1994.47 294.409ZM1997.88 271.824C2007.97 271.824 2016.49 269.196 2023.45 263.94C2030.41 258.614 2035.7 251.263 2039.32 241.888C2042.95 232.442 2044.76 221.54 2044.76 209.182C2044.76 196.966 2042.98 186.277 2039.43 177.115C2035.88 167.882 2030.62 160.709 2023.66 155.595C2016.7 150.411 2008.11 147.818 1997.88 147.818C1987.23 147.818 1978.35 150.553 1971.25 156.021C1964.22 161.419 1958.93 168.77 1955.38 178.074C1951.89 187.307 1950.15 197.676 1950.15 209.182C1950.15 220.83 1951.93 231.412 1955.48 240.929C1959.1 250.375 1964.43 257.903 1971.46 263.514C1978.56 269.054 1987.37 271.824 1997.88 271.824ZM2306.51 224.097V127.364H2331.65V291H2306.51V263.301H2304.81C2300.97 271.611 2295.01 278.678 2286.91 284.501C2278.81 290.254 2268.59 293.131 2256.23 293.131C2246 293.131 2236.91 290.893 2228.95 286.419C2221 281.874 2214.75 275.055 2210.2 265.964C2205.66 256.803 2203.39 245.261 2203.39 231.341V127.364H2228.53V229.636C2228.53 241.568 2231.87 251.085 2238.54 258.188C2245.29 265.29 2253.88 268.841 2264.32 268.841C2270.57 268.841 2276.93 267.243 2283.39 264.047C2289.93 260.851 2295.4 255.95 2299.8 249.345C2304.27 242.74 2306.51 234.324 2306.51 224.097ZM2528.56 294.409C2513.21 294.409 2500 290.787 2488.92 283.543C2477.84 276.298 2469.32 266.32 2463.36 253.607C2457.39 240.893 2454.41 226.369 2454.41 210.034C2454.41 193.415 2457.46 178.749 2463.57 166.036C2469.75 153.251 2478.34 143.273 2489.35 136.099C2500.43 128.855 2513.36 125.233 2528.13 125.233C2539.63 125.233 2550 127.364 2559.24 131.625C2568.47 135.886 2576.03 141.852 2581.93 149.523C2587.82 157.193 2591.48 166.142 2592.9 176.369H2567.76C2565.84 168.912 2561.58 162.307 2554.98 156.554C2548.44 150.73 2539.63 147.818 2528.56 147.818C2518.75 147.818 2510.16 150.375 2502.77 155.489C2495.46 160.531 2489.74 167.669 2485.62 176.902C2481.57 186.064 2479.55 196.824 2479.55 209.182C2479.55 221.824 2481.54 232.832 2485.52 242.207C2489.56 251.582 2495.25 258.862 2502.56 264.047C2509.95 269.232 2518.61 271.824 2528.56 271.824C2535.09 271.824 2541.02 270.688 2546.35 268.415C2551.67 266.142 2556.18 262.875 2559.88 258.614C2563.57 254.352 2566.2 249.239 2567.76 243.273H2592.9C2591.48 252.932 2587.97 261.632 2582.35 269.374C2576.81 277.044 2569.46 283.152 2560.3 287.697C2551.21 292.172 2540.63 294.409 2528.56 294.409ZM2762.18 294.835C2751.81 294.835 2742.4 292.882 2733.95 288.976C2725.5 284.999 2718.79 279.281 2713.82 271.824C2708.85 264.295 2706.36 255.205 2706.36 244.551C2706.36 235.176 2708.21 227.577 2711.9 221.753C2715.59 215.858 2720.53 211.241 2726.71 207.903C2732.89 204.565 2739.71 202.08 2747.16 200.446C2754.69 198.741 2762.26 197.392 2769.85 196.398C2779.8 195.119 2787.86 194.161 2794.04 193.521C2800.29 192.811 2804.83 191.639 2807.67 190.006C2810.59 188.372 2812.04 185.531 2812.04 181.483V180.631C2812.04 170.119 2809.17 161.952 2803.41 156.128C2797.73 150.304 2789.1 147.392 2777.53 147.392C2765.52 147.392 2756.11 150.02 2749.29 155.276C2742.48 160.531 2737.68 166.142 2734.91 172.108L2711.05 163.585C2715.31 153.642 2720.99 145.901 2728.09 140.361C2735.27 134.75 2743.08 130.844 2751.53 128.642C2760.05 126.369 2768.43 125.233 2776.67 125.233C2781.93 125.233 2787.97 125.872 2794.78 127.151C2801.67 128.358 2808.31 130.879 2814.71 134.714C2821.17 138.55 2826.53 144.338 2830.79 152.08C2835.05 159.821 2837.18 170.19 2837.18 183.188V291H2812.04V268.841H2810.76C2809.06 272.392 2806.22 276.192 2802.24 280.24C2798.26 284.288 2792.97 287.733 2786.37 290.574C2779.76 293.415 2771.7 294.835 2762.18 294.835ZM2766.02 272.25C2775.96 272.25 2784.34 270.297 2791.16 266.391C2798.05 262.484 2803.24 257.442 2806.72 251.263C2810.27 245.084 2812.04 238.585 2812.04 231.767V208.756C2810.98 210.034 2808.63 211.206 2805.01 212.271C2801.46 213.266 2797.34 214.153 2792.65 214.935C2788.04 215.645 2783.53 216.284 2779.12 216.852C2774.79 217.349 2771.28 217.776 2768.58 218.131C2762.04 218.983 2755.93 220.368 2750.25 222.286C2744.64 224.132 2740.1 226.937 2736.62 230.702C2733.21 234.395 2731.5 239.437 2731.5 245.83C2731.5 254.565 2734.73 261.17 2741.2 265.645C2747.73 270.048 2756.01 272.25 2766.02 272.25ZM3038.61 127.364V148.67H2953.81V127.364H3038.61ZM2978.53 88.1591H3003.67V244.125C3003.67 251.227 3004.7 256.554 3006.76 260.105C3008.89 263.585 3011.59 265.929 3014.86 267.136C3018.19 268.273 3021.71 268.841 3025.4 268.841C3028.17 268.841 3030.45 268.699 3032.22 268.415C3034 268.06 3035.42 267.776 3036.48 267.562L3041.6 290.148C3039.89 290.787 3037.51 291.426 3034.46 292.065C3031.4 292.776 3027.53 293.131 3022.85 293.131C3015.74 293.131 3008.78 291.604 3001.97 288.55C2995.22 285.496 2989.61 280.844 2985.13 274.594C2980.73 268.344 2978.53 260.46 2978.53 250.943V88.1591ZM3160.81 291V127.364H3185.95V291H3160.81ZM3173.59 100.091C3168.69 100.091 3164.47 98.4219 3160.91 95.0838C3157.43 91.7457 3155.69 87.733 3155.69 83.0455C3155.69 78.358 3157.43 74.3452 3160.91 71.0071C3164.47 67.669 3168.69 66 3173.59 66C3178.49 66 3182.68 67.669 3186.16 71.0071C3189.71 74.3452 3191.49 78.358 3191.49 83.0455C3191.49 87.733 3189.71 91.7457 3186.16 95.0838C3182.68 98.4219 3178.49 100.091 3173.59 100.091ZM3382.85 294.409C3368.08 294.409 3355.12 290.893 3343.97 283.862C3332.89 276.831 3324.22 266.994 3317.97 254.352C3311.79 241.71 3308.7 226.937 3308.7 210.034C3308.7 192.989 3311.79 178.109 3317.97 165.396C3324.22 152.683 3332.89 142.811 3343.97 135.78C3355.12 128.749 3368.08 125.233 3382.85 125.233C3397.62 125.233 3410.55 128.749 3421.63 135.78C3432.78 142.811 3441.45 152.683 3447.62 165.396C3453.87 178.109 3457 192.989 3457 210.034C3457 226.937 3453.87 241.71 3447.62 254.352C3441.45 266.994 3432.78 276.831 3421.63 283.862C3410.55 290.893 3397.62 294.409 3382.85 294.409ZM3382.85 271.824C3394.07 271.824 3403.31 268.947 3410.55 263.195C3417.8 257.442 3423.16 249.878 3426.64 240.503C3430.12 231.128 3431.86 220.972 3431.86 210.034C3431.86 199.097 3430.12 188.905 3426.64 179.459C3423.16 170.013 3417.8 162.378 3410.55 156.554C3403.31 150.73 3394.07 147.818 3382.85 147.818C3371.63 147.818 3362.4 150.73 3355.15 156.554C3347.91 162.378 3342.55 170.013 3339.07 179.459C3335.59 188.905 3333.85 199.097 3333.85 210.034C3333.85 220.972 3335.59 231.128 3339.07 240.503C3342.55 249.878 3347.91 257.442 3355.15 263.195C3362.4 268.947 3371.63 271.824 3382.85 271.824ZM3604.9 192.562V291H3579.75V127.364H3604.04V152.932H3606.17C3610.01 144.622 3615.83 137.946 3623.65 132.903C3631.46 127.79 3641.54 125.233 3653.9 125.233C3664.98 125.233 3674.68 127.506 3682.99 132.051C3691.29 136.526 3697.76 143.344 3702.37 152.506C3706.99 161.597 3709.3 173.102 3709.3 187.023V291H3684.16V188.727C3684.16 175.872 3680.82 165.858 3674.14 158.685C3667.47 151.44 3658.3 147.818 3646.66 147.818C3638.63 147.818 3631.46 149.558 3625.14 153.038C3618.89 156.518 3613.95 161.597 3610.33 168.273C3606.71 174.949 3604.9 183.045 3604.9 192.562Z" fill="#006CA9"/>
<path d="M1672.42 1160V941.818H1804.1V965.256H1698.84V1038.98H1797.28V1062.41H1698.84V1136.56H1805.8V1160H1672.42ZM1994.47 1163.41C1980.84 1163.41 1968.8 1159.96 1958.36 1153.08C1947.92 1146.12 1939.75 1136.31 1933.86 1123.67C1927.96 1110.96 1925.01 1095.94 1925.01 1078.61C1925.01 1061.42 1927.96 1046.51 1933.86 1033.86C1939.75 1021.22 1947.95 1011.46 1958.46 1004.57C1968.98 997.678 1981.12 994.233 1994.9 994.233C2005.55 994.233 2013.97 996.009 2020.15 999.56C2026.4 1003.04 2031.16 1007.02 2034.42 1011.49C2037.76 1015.89 2040.35 1019.52 2042.2 1022.36H2044.33V941.818H2069.47V1160H2045.18V1134.86H2042.2C2040.35 1137.84 2037.73 1141.61 2034.32 1146.15C2030.91 1150.62 2026.04 1154.64 2019.72 1158.19C2013.4 1161.67 2004.98 1163.41 1994.47 1163.41ZM1997.88 1140.82C2007.97 1140.82 2016.49 1138.2 2023.45 1132.94C2030.41 1127.61 2035.7 1120.26 2039.32 1110.89C2042.95 1101.44 2044.76 1090.54 2044.76 1078.18C2044.76 1065.97 2042.98 1055.28 2039.43 1046.12C2035.88 1036.88 2030.62 1029.71 2023.66 1024.6C2016.7 1019.41 2008.11 1016.82 1997.88 1016.82C1987.23 1016.82 1978.35 1019.55 1971.25 1025.02C1964.22 1030.42 1958.93 1037.77 1955.38 1047.07C1951.89 1056.31 1950.15 1066.68 1950.15 1078.18C1950.15 1089.83 1951.93 1100.41 1955.48 1109.93C1959.1 1119.37 1964.43 1126.9 1971.46 1132.51C1978.56 1138.05 1987.37 1140.82 1997.88 1140.82ZM2306.51 1093.1V996.364H2331.65V1160H2306.51V1132.3H2304.81C2300.97 1140.61 2295.01 1147.68 2286.91 1153.5C2278.81 1159.25 2268.59 1162.13 2256.23 1162.13C2246 1162.13 2236.91 1159.89 2228.95 1155.42C2221 1150.87 2214.75 1144.06 2210.2 1134.96C2205.66 1125.8 2203.39 1114.26 2203.39 1100.34V996.364H2228.53V1098.64C2228.53 1110.57 2231.87 1120.09 2238.54 1127.19C2245.29 1134.29 2253.88 1137.84 2264.32 1137.84C2270.57 1137.84 2276.93 1136.24 2283.39 1133.05C2289.93 1129.85 2295.4 1124.95 2299.8 1118.35C2304.27 1111.74 2306.51 1103.32 2306.51 1093.1ZM2528.56 1163.41C2513.21 1163.41 2500 1159.79 2488.92 1152.54C2477.84 1145.3 2469.32 1135.32 2463.36 1122.61C2457.39 1109.89 2454.41 1095.37 2454.41 1079.03C2454.41 1062.41 2457.46 1047.75 2463.57 1035.04C2469.75 1022.25 2478.34 1012.27 2489.35 1005.1C2500.43 997.855 2513.36 994.233 2528.13 994.233C2539.63 994.233 2550 996.364 2559.24 1000.62C2568.47 1004.89 2576.03 1010.85 2581.93 1018.52C2587.82 1026.19 2591.48 1035.14 2592.9 1045.37H2567.76C2565.84 1037.91 2561.58 1031.31 2554.98 1025.55C2548.44 1019.73 2539.63 1016.82 2528.56 1016.82C2518.75 1016.82 2510.16 1019.37 2502.77 1024.49C2495.46 1029.53 2489.74 1036.67 2485.62 1045.9C2481.57 1055.06 2479.55 1065.82 2479.55 1078.18C2479.55 1090.82 2481.54 1101.83 2485.52 1111.21C2489.56 1120.58 2495.25 1127.86 2502.56 1133.05C2509.95 1138.23 2518.61 1140.82 2528.56 1140.82C2535.09 1140.82 2541.02 1139.69 2546.35 1137.41C2551.67 1135.14 2556.18 1131.88 2559.88 1127.61C2563.57 1123.35 2566.2 1118.24 2567.76 1112.27H2592.9C2591.48 1121.93 2587.97 1130.63 2582.35 1138.37C2576.81 1146.04 2569.46 1152.15 2560.3 1156.7C2551.21 1161.17 2540.63 1163.41 2528.56 1163.41ZM2762.18 1163.84C2751.81 1163.84 2742.4 1161.88 2733.95 1157.98C2725.5 1154 2718.79 1148.28 2713.82 1140.82C2708.85 1133.3 2706.36 1124.2 2706.36 1113.55C2706.36 1104.18 2708.21 1096.58 2711.9 1090.75C2715.59 1084.86 2720.53 1080.24 2726.71 1076.9C2732.89 1073.57 2739.71 1071.08 2747.16 1069.45C2754.69 1067.74 2762.26 1066.39 2769.85 1065.4C2779.8 1064.12 2787.86 1063.16 2794.04 1062.52C2800.29 1061.81 2804.83 1060.64 2807.67 1059.01C2810.59 1057.37 2812.04 1054.53 2812.04 1050.48V1049.63C2812.04 1039.12 2809.17 1030.95 2803.41 1025.13C2797.73 1019.3 2789.1 1016.39 2777.53 1016.39C2765.52 1016.39 2756.11 1019.02 2749.29 1024.28C2742.48 1029.53 2737.68 1035.14 2734.91 1041.11L2711.05 1032.59C2715.31 1022.64 2720.99 1014.9 2728.09 1009.36C2735.27 1003.75 2743.08 999.844 2751.53 997.642C2760.05 995.369 2768.43 994.233 2776.67 994.233C2781.93 994.233 2787.97 994.872 2794.78 996.151C2801.67 997.358 2808.31 999.879 2814.71 1003.71C2821.17 1007.55 2826.53 1013.34 2830.79 1021.08C2835.05 1028.82 2837.18 1039.19 2837.18 1052.19V1160H2812.04V1137.84H2810.76C2809.06 1141.39 2806.22 1145.19 2802.24 1149.24C2798.26 1153.29 2792.97 1156.73 2786.37 1159.57C2779.76 1162.41 2771.7 1163.84 2762.18 1163.84ZM2766.02 1141.25C2775.96 1141.25 2784.34 1139.3 2791.16 1135.39C2798.05 1131.48 2803.24 1126.44 2806.72 1120.26C2810.27 1114.08 2812.04 1107.59 2812.04 1100.77V1077.76C2810.98 1079.03 2808.63 1080.21 2805.01 1081.27C2801.46 1082.27 2797.34 1083.15 2792.65 1083.93C2788.04 1084.64 2783.53 1085.28 2779.12 1085.85C2774.79 1086.35 2771.28 1086.78 2768.58 1087.13C2762.04 1087.98 2755.93 1089.37 2750.25 1091.29C2744.64 1093.13 2740.1 1095.94 2736.62 1099.7C2733.21 1103.39 2731.5 1108.44 2731.5 1114.83C2731.5 1123.57 2734.73 1130.17 2741.2 1134.64C2747.73 1139.05 2756.01 1141.25 2766.02 1141.25ZM3038.61 996.364V1017.67H2953.81V996.364H3038.61ZM2978.53 957.159H3003.67V1113.12C3003.67 1120.23 3004.7 1125.55 3006.76 1129.11C3008.89 1132.59 3011.59 1134.93 3014.86 1136.14C3018.19 1137.27 3021.71 1137.84 3025.4 1137.84C3028.17 1137.84 3030.45 1137.7 3032.22 1137.41C3034 1137.06 3035.42 1136.78 3036.48 1136.56L3041.6 1159.15C3039.89 1159.79 3037.51 1160.43 3034.46 1161.07C3031.4 1161.78 3027.53 1162.13 3022.85 1162.13C3015.74 1162.13 3008.78 1160.6 3001.97 1157.55C2995.22 1154.5 2989.61 1149.84 2985.13 1143.59C2980.73 1137.34 2978.53 1129.46 2978.53 1119.94V957.159ZM3160.81 1160V996.364H3185.95V1160H3160.81ZM3173.59 969.091C3168.69 969.091 3164.47 967.422 3160.91 964.084C3157.43 960.746 3155.69 956.733 3155.69 952.045C3155.69 947.358 3157.43 943.345 3160.91 940.007C3164.47 936.669 3168.69 935 3173.59 935C3178.49 935 3182.68 936.669 3186.16 940.007C3189.71 943.345 3191.49 947.358 3191.49 952.045C3191.49 956.733 3189.71 960.746 3186.16 964.084C3182.68 967.422 3178.49 969.091 3173.59 969.091ZM3382.85 1163.41C3368.08 1163.41 3355.12 1159.89 3343.97 1152.86C3332.89 1145.83 3324.22 1135.99 3317.97 1123.35C3311.79 1110.71 3308.7 1095.94 3308.7 1079.03C3308.7 1061.99 3311.79 1047.11 3317.97 1034.4C3324.22 1021.68 3332.89 1011.81 3343.97 1004.78C3355.12 997.749 3368.08 994.233 3382.85 994.233C3397.62 994.233 3410.55 997.749 3421.63 1004.78C3432.78 1011.81 3441.45 1021.68 3447.62 1034.4C3453.87 1047.11 3457 1061.99 3457 1079.03C3457 1095.94 3453.87 1110.71 3447.62 1123.35C3441.45 1135.99 3432.78 1145.83 3421.63 1152.86C3410.55 1159.89 3397.62 1163.41 3382.85 1163.41ZM3382.85 1140.82C3394.07 1140.82 3403.31 1137.95 3410.55 1132.19C3417.8 1126.44 3423.16 1118.88 3426.64 1109.5C3430.12 1100.13 3431.86 1089.97 3431.86 1079.03C3431.86 1068.1 3430.12 1057.9 3426.64 1048.46C3423.16 1039.01 3417.8 1031.38 3410.55 1025.55C3403.31 1019.73 3394.07 1016.82 3382.85 1016.82C3371.63 1016.82 3362.4 1019.73 3355.15 1025.55C3347.91 1031.38 3342.55 1039.01 3339.07 1048.46C3335.59 1057.9 3333.85 1068.1 3333.85 1079.03C3333.85 1089.97 3335.59 1100.13 3339.07 1109.5C3342.55 1118.88 3347.91 1126.44 3355.15 1132.19C3362.4 1137.95 3371.63 1140.82 3382.85 1140.82ZM3604.9 1061.56V1160H3579.75V996.364H3604.04V1021.93H3606.17C3610.01 1013.62 3615.83 1006.95 3623.65 1001.9C3631.46 996.79 3641.54 994.233 3653.9 994.233C3664.98 994.233 3674.68 996.506 3682.99 1001.05C3691.29 1005.53 3697.76 1012.34 3702.37 1021.51C3706.99 1030.6 3709.3 1042.1 3709.3 1056.02V1160H3684.16V1057.73C3684.16 1044.87 3680.82 1034.86 3674.14 1027.68C3667.47 1020.44 3658.3 1016.82 3646.66 1016.82C3638.63 1016.82 3631.46 1018.56 3625.14 1022.04C3618.89 1025.52 3613.95 1030.6 3610.33 1037.27C3606.71 1043.95 3604.9 1052.05 3604.9 1061.56Z" fill="#737370"/>
<path d="M1857.51 1907.91C1857.51 1930.92 1853.36 1950.81 1845.05 1967.57C1836.74 1984.33 1825.34 1997.26 1810.85 2006.35C1796.36 2015.44 1779.81 2019.98 1761.2 2019.98C1742.6 2019.98 1726.05 2015.44 1711.56 2006.35C1697.07 1997.26 1685.67 1984.33 1677.36 1967.57C1669.05 1950.81 1664.9 1930.92 1664.9 1907.91C1664.9 1884.9 1669.05 1865.01 1677.36 1848.25C1685.67 1831.49 1697.07 1818.56 1711.56 1809.47C1726.05 1800.38 1742.6 1795.84 1761.2 1795.84C1779.81 1795.84 1796.36 1800.38 1810.85 1809.47C1825.34 1818.56 1836.74 1831.49 1845.05 1848.25C1853.36 1865.01 1857.51 1884.9 1857.51 1907.91ZM1831.94 1907.91C1831.94 1889.02 1828.78 1873.07 1822.46 1860.08C1816.21 1847.08 1807.72 1837.24 1797 1830.57C1786.35 1823.89 1774.41 1820.55 1761.2 1820.55C1747.99 1820.55 1736.03 1823.89 1725.3 1830.57C1714.65 1837.24 1706.16 1847.08 1699.84 1860.08C1693.59 1873.07 1690.47 1889.02 1690.47 1907.91C1690.47 1926.8 1693.59 1942.75 1699.84 1955.74C1706.16 1968.74 1714.65 1978.58 1725.3 1985.25C1736.03 1991.93 1747.99 1995.27 1761.2 1995.27C1774.41 1995.27 1786.35 1991.93 1797 1985.25C1807.72 1978.58 1816.21 1968.74 1822.46 1955.74C1828.78 1942.75 1831.94 1926.8 1831.94 1907.91ZM2044.69 2020.41C2031.06 2020.41 2019.02 2016.96 2008.58 2010.08C1998.14 2003.12 1989.97 1993.31 1984.07 1980.67C1978.18 1967.96 1975.23 1952.94 1975.23 1935.61C1975.23 1918.42 1978.18 1903.51 1984.07 1890.86C1989.97 1878.22 1998.17 1868.46 2008.68 1861.57C2019.19 1854.68 2031.34 1851.23 2045.12 1851.23C2055.77 1851.23 2064.19 1853.01 2070.37 1856.56C2076.62 1860.04 2081.38 1864.02 2084.64 1868.49C2087.98 1872.89 2090.57 1876.52 2092.42 1879.36H2094.55V1798.82H2119.69V2017H2095.4V1991.86H2092.42C2090.57 1994.84 2087.94 1998.61 2084.54 2003.15C2081.13 2007.62 2076.26 2011.64 2069.94 2015.19C2063.62 2018.67 2055.2 2020.41 2044.69 2020.41ZM2048.1 1997.82C2058.19 1997.82 2066.71 1995.2 2073.67 1989.94C2080.63 1984.61 2085.92 1977.26 2089.54 1967.89C2093.16 1958.44 2094.98 1947.54 2094.98 1935.18C2094.98 1922.97 2093.2 1912.28 2089.65 1903.12C2086.1 1893.88 2080.84 1886.71 2073.88 1881.6C2066.92 1876.41 2058.33 1873.82 2048.1 1873.82C2037.45 1873.82 2028.57 1876.55 2021.47 1882.02C2014.44 1887.42 2009.14 1894.77 2005.59 1904.07C2002.11 1913.31 2000.37 1923.68 2000.37 1935.18C2000.37 1946.83 2002.15 1957.41 2005.7 1966.93C2009.32 1976.37 2014.65 1983.9 2021.68 1989.51C2028.78 1995.05 2037.59 1997.82 2048.1 1997.82ZM2253.61 2017V1853.36H2278.75V2017H2253.61ZM2266.39 1826.09C2261.49 1826.09 2257.26 1824.42 2253.71 1821.08C2250.23 1817.75 2248.49 1813.73 2248.49 1809.05C2248.49 1804.36 2250.23 1800.35 2253.71 1797.01C2257.26 1793.67 2261.49 1792 2266.39 1792C2271.29 1792 2275.48 1793.67 2278.96 1797.01C2282.51 1800.35 2284.29 1804.36 2284.29 1809.05C2284.29 1813.73 2282.51 1817.75 2278.96 1821.08C2275.48 1824.42 2271.29 1826.09 2266.39 1826.09ZM2475.65 2020.41C2460.31 2020.41 2447.1 2016.79 2436.02 2009.54C2424.94 2002.3 2416.42 1992.32 2410.45 1979.61C2404.48 1966.89 2401.5 1952.37 2401.5 1936.03C2401.5 1919.41 2404.56 1904.75 2410.66 1892.04C2416.84 1879.25 2425.44 1869.27 2436.44 1862.1C2447.52 1854.86 2460.45 1851.23 2475.22 1851.23C2486.73 1851.23 2497.1 1853.36 2506.33 1857.62C2515.56 1861.89 2523.13 1867.85 2529.02 1875.52C2534.92 1883.19 2538.57 1892.14 2540 1902.37H2514.85C2512.94 1894.91 2508.67 1888.31 2502.07 1882.55C2495.54 1876.73 2486.73 1873.82 2475.65 1873.82C2465.85 1873.82 2457.25 1876.37 2449.87 1881.49C2442.55 1886.53 2436.83 1893.67 2432.72 1902.9C2428.67 1912.06 2426.64 1922.82 2426.64 1935.18C2426.64 1947.82 2428.63 1958.83 2432.61 1968.21C2436.66 1977.58 2442.34 1984.86 2449.65 1990.05C2457.04 1995.23 2465.71 1997.82 2475.65 1997.82C2482.18 1997.82 2488.11 1996.69 2493.44 1994.41C2498.77 1992.14 2503.28 1988.88 2506.97 1984.61C2510.66 1980.35 2513.29 1975.24 2514.85 1969.27H2540C2538.57 1978.93 2535.06 1987.63 2529.45 1995.37C2523.91 2003.04 2516.56 2009.15 2507.4 2013.7C2498.31 2018.17 2487.72 2020.41 2475.65 2020.41ZM2709.28 2020.84C2698.91 2020.84 2689.5 2018.88 2681.05 2014.98C2672.59 2011 2665.88 2005.28 2660.91 1997.82C2655.94 1990.3 2653.45 1981.2 2653.45 1970.55C2653.45 1961.18 2655.3 1953.58 2658.99 1947.75C2662.69 1941.86 2667.62 1937.24 2673.8 1933.9C2679.98 1930.57 2686.8 1928.08 2694.26 1926.45C2701.79 1924.74 2709.35 1923.39 2716.95 1922.4C2726.89 1921.12 2734.95 1920.16 2741.13 1919.52C2747.38 1918.81 2751.93 1917.64 2754.77 1916.01C2757.68 1914.37 2759.14 1911.53 2759.14 1907.48V1906.63C2759.14 1896.12 2756.26 1887.95 2750.51 1882.13C2744.82 1876.3 2736.2 1873.39 2724.62 1873.39C2712.62 1873.39 2703.21 1876.02 2696.39 1881.28C2689.57 1886.53 2684.78 1892.14 2682.01 1898.11L2658.14 1889.59C2662.4 1879.64 2668.08 1871.9 2675.19 1866.36C2682.36 1860.75 2690.17 1856.84 2698.62 1854.64C2707.15 1852.37 2715.53 1851.23 2723.77 1851.23C2729.02 1851.23 2735.06 1851.87 2741.88 1853.15C2748.77 1854.36 2755.41 1856.88 2761.8 1860.71C2768.26 1864.55 2773.62 1870.34 2777.89 1878.08C2782.15 1885.82 2784.28 1896.19 2784.28 1909.19V2017H2759.14V1994.84H2757.86C2756.15 1998.39 2753.31 2002.19 2749.33 2006.24C2745.36 2010.29 2740.07 2013.73 2733.46 2016.57C2726.86 2019.41 2718.8 2020.84 2709.28 2020.84ZM2713.11 1998.25C2723.06 1998.25 2731.44 1996.3 2738.26 1992.39C2745.14 1988.48 2750.33 1983.44 2753.81 1977.26C2757.36 1971.08 2759.14 1964.59 2759.14 1957.77V1934.76C2758.07 1936.03 2755.73 1937.21 2752.1 1938.27C2748.55 1939.27 2744.43 1940.15 2739.75 1940.93C2735.13 1941.64 2730.62 1942.28 2726.22 1942.85C2721.88 1943.35 2718.37 1943.78 2715.67 1944.13C2709.14 1944.98 2703.03 1946.37 2697.35 1948.29C2691.74 1950.13 2687.19 1952.94 2683.71 1956.7C2680.3 1960.39 2678.6 1965.44 2678.6 1971.83C2678.6 1980.57 2681.83 1987.17 2688.29 1991.64C2694.82 1996.05 2703.1 1998.25 2713.11 1998.25ZM2985.71 1853.36V1874.67H2900.91V1853.36H2985.71ZM2925.62 1814.16H2950.76V1970.12C2950.76 1977.23 2951.79 1982.55 2953.85 1986.11C2955.98 1989.59 2958.68 1991.93 2961.95 1993.14C2965.29 1994.27 2968.8 1994.84 2972.5 1994.84C2975.27 1994.84 2977.54 1994.7 2979.32 1994.41C2981.09 1994.06 2982.51 1993.78 2983.58 1993.56L2988.69 2016.15C2986.99 2016.79 2984.61 2017.43 2981.55 2018.07C2978.5 2018.78 2974.63 2019.13 2969.94 2019.13C2962.84 2019.13 2955.88 2017.6 2949.06 2014.55C2942.31 2011.5 2936.7 2006.84 2932.23 2000.59C2927.82 1994.34 2925.62 1986.46 2925.62 1976.94V1814.16ZM3211.03 1950.1V1853.36H3236.17V2017H3211.03V1989.3H3209.32C3205.49 1997.61 3199.52 2004.68 3191.42 2010.5C3183.33 2016.25 3173.1 2019.13 3160.74 2019.13C3150.52 2019.13 3141.42 2016.89 3133.47 2012.42C3125.52 2007.87 3119.27 2001.06 3114.72 1991.96C3110.17 1982.8 3107.9 1971.26 3107.9 1957.34V1853.36H3133.04V1955.64C3133.04 1967.57 3136.38 1977.09 3143.06 1984.19C3149.81 1991.29 3158.4 1994.84 3168.84 1994.84C3175.09 1994.84 3181.45 1993.24 3187.91 1990.05C3194.44 1986.85 3199.91 1981.95 3204.32 1975.35C3208.79 1968.74 3211.03 1960.32 3211.03 1950.1ZM3435.2 2020.41C3419.43 2020.41 3405.83 2016.93 3394.4 2009.97C3383.04 2002.94 3374.26 1993.14 3368.08 1980.57C3361.98 1967.92 3358.92 1953.22 3358.92 1936.46C3358.92 1919.7 3361.98 1904.93 3368.08 1892.14C3374.26 1879.29 3382.86 1869.27 3393.87 1862.1C3404.95 1854.86 3417.87 1851.23 3432.64 1851.23C3441.17 1851.23 3449.58 1852.65 3457.89 1855.49C3466.2 1858.34 3473.77 1862.95 3480.58 1869.34C3487.4 1875.66 3492.84 1884.05 3496.88 1894.49C3500.93 1904.93 3502.96 1917.78 3502.96 1933.05V1943.7H3376.82V1921.97H3477.39C3477.39 1912.74 3475.54 1904.5 3471.85 1897.26C3468.23 1890.01 3463.04 1884.29 3456.3 1880.1C3449.62 1875.91 3441.74 1873.82 3432.64 1873.82C3422.63 1873.82 3413.97 1876.3 3406.65 1881.28C3399.41 1886.18 3393.83 1892.57 3389.92 1900.45C3386.02 1908.34 3384.06 1916.79 3384.06 1925.81V1940.3C3384.06 1952.65 3386.2 1963.13 3390.46 1971.72C3394.79 1980.25 3400.79 1986.74 3408.46 1991.22C3416.13 1995.62 3425.05 1997.82 3435.2 1997.82C3441.81 1997.82 3447.77 1996.9 3453.1 1995.05C3458.5 1993.14 3463.15 1990.3 3467.06 1986.53C3470.96 1982.7 3473.98 1977.94 3476.11 1972.26L3500.4 1979.07C3497.84 1987.31 3493.55 1994.56 3487.51 2000.81C3481.47 2006.99 3474.02 2011.82 3465.14 2015.3C3456.26 2018.7 3446.28 2020.41 3435.2 2020.41ZM3650.72 1918.56V2017H3625.58V1853.36H3649.87V1878.93H3652C3655.83 1870.62 3661.66 1863.95 3669.47 1858.9C3677.28 1853.79 3687.37 1851.23 3699.73 1851.23C3710.81 1851.23 3720.5 1853.51 3728.81 1858.05C3737.12 1862.53 3743.58 1869.34 3748.2 1878.51C3752.81 1887.6 3755.12 1899.1 3755.12 1913.02V2017H3729.98V1914.73C3729.98 1901.87 3726.64 1891.86 3719.97 1884.68C3713.29 1877.44 3704.13 1873.82 3692.48 1873.82C3684.46 1873.82 3677.28 1875.56 3670.96 1879.04C3664.71 1882.52 3659.78 1887.6 3656.15 1894.27C3652.53 1900.95 3650.72 1909.05 3650.72 1918.56Z" fill="#737370"/>
<path d="M1856.51 2806.91C1856.51 2829.92 1852.36 2849.81 1844.05 2866.57C1835.74 2883.33 1824.34 2896.26 1809.85 2905.35C1795.36 2914.44 1778.81 2918.98 1760.2 2918.98C1741.6 2918.98 1725.05 2914.44 1710.56 2905.35C1696.07 2896.26 1684.67 2883.33 1676.36 2866.57C1668.05 2849.81 1663.9 2829.92 1663.9 2806.91C1663.9 2783.9 1668.05 2764.01 1676.36 2747.25C1684.67 2730.49 1696.07 2717.56 1710.56 2708.47C1725.05 2699.38 1741.6 2694.84 1760.2 2694.84C1778.81 2694.84 1795.36 2699.38 1809.85 2708.47C1824.34 2717.56 1835.74 2730.49 1844.05 2747.25C1852.36 2764.01 1856.51 2783.9 1856.51 2806.91ZM1830.94 2806.91C1830.94 2788.02 1827.78 2772.07 1821.46 2759.08C1815.21 2746.08 1806.72 2736.24 1796 2729.57C1785.35 2722.89 1773.41 2719.55 1760.2 2719.55C1746.99 2719.55 1735.03 2722.89 1724.3 2729.57C1713.65 2736.24 1705.16 2746.08 1698.84 2759.08C1692.59 2772.07 1689.47 2788.02 1689.47 2806.91C1689.47 2825.8 1692.59 2841.75 1698.84 2854.74C1705.16 2867.74 1713.65 2877.58 1724.3 2884.25C1735.03 2890.93 1746.99 2894.27 1760.2 2894.27C1773.41 2894.27 1785.35 2890.93 1796 2884.25C1806.72 2877.58 1815.21 2867.74 1821.46 2854.74C1827.78 2841.75 1830.94 2825.8 1830.94 2806.91ZM2043.69 2919.41C2030.06 2919.41 2018.02 2915.96 2007.58 2909.08C1997.14 2902.12 1988.97 2892.31 1983.07 2879.67C1977.18 2866.96 1974.23 2851.94 1974.23 2834.61C1974.23 2817.42 1977.18 2802.51 1983.07 2789.86C1988.97 2777.22 1997.17 2767.46 2007.68 2760.57C2018.19 2753.68 2030.34 2750.23 2044.12 2750.23C2054.77 2750.23 2063.19 2752.01 2069.37 2755.56C2075.62 2759.04 2080.38 2763.02 2083.64 2767.49C2086.98 2771.89 2089.57 2775.52 2091.42 2778.36H2093.55V2697.82H2118.69V2916H2094.4V2890.86H2091.42C2089.57 2893.84 2086.94 2897.61 2083.54 2902.15C2080.13 2906.62 2075.26 2910.64 2068.94 2914.19C2062.62 2917.67 2054.2 2919.41 2043.69 2919.41ZM2047.1 2896.82C2057.19 2896.82 2065.71 2894.2 2072.67 2888.94C2079.63 2883.61 2084.92 2876.26 2088.54 2866.89C2092.16 2857.44 2093.98 2846.54 2093.98 2834.18C2093.98 2821.97 2092.2 2811.28 2088.65 2802.12C2085.1 2792.88 2079.84 2785.71 2072.88 2780.6C2065.92 2775.41 2057.33 2772.82 2047.1 2772.82C2036.45 2772.82 2027.57 2775.55 2020.47 2781.02C2013.44 2786.42 2008.14 2793.77 2004.59 2803.07C2001.11 2812.31 1999.37 2822.68 1999.37 2834.18C1999.37 2845.83 2001.15 2856.41 2004.7 2865.93C2008.32 2875.37 2013.65 2882.9 2020.68 2888.51C2027.78 2894.05 2036.59 2896.82 2047.1 2896.82ZM2252.61 2916V2752.36H2277.75V2916H2252.61ZM2265.39 2725.09C2260.49 2725.09 2256.26 2723.42 2252.71 2720.08C2249.23 2716.75 2247.49 2712.73 2247.49 2708.05C2247.49 2703.36 2249.23 2699.35 2252.71 2696.01C2256.26 2692.67 2260.49 2691 2265.39 2691C2270.29 2691 2274.48 2692.67 2277.96 2696.01C2281.51 2699.35 2283.29 2703.36 2283.29 2708.05C2283.29 2712.73 2281.51 2716.75 2277.96 2720.08C2274.48 2723.42 2270.29 2725.09 2265.39 2725.09ZM2474.65 2919.41C2459.31 2919.41 2446.1 2915.79 2435.02 2908.54C2423.94 2901.3 2415.42 2891.32 2409.45 2878.61C2403.48 2865.89 2400.5 2851.37 2400.5 2835.03C2400.5 2818.41 2403.56 2803.75 2409.66 2791.04C2415.84 2778.25 2424.44 2768.27 2435.44 2761.1C2446.52 2753.86 2459.45 2750.23 2474.22 2750.23C2485.73 2750.23 2496.1 2752.36 2505.33 2756.62C2514.56 2760.89 2522.13 2766.85 2528.02 2774.52C2533.92 2782.19 2537.57 2791.14 2539 2801.37H2513.85C2511.94 2793.91 2507.67 2787.31 2501.07 2781.55C2494.54 2775.73 2485.73 2772.82 2474.65 2772.82C2464.85 2772.82 2456.25 2775.37 2448.87 2780.49C2441.55 2785.53 2435.83 2792.67 2431.72 2801.9C2427.67 2811.06 2425.64 2821.82 2425.64 2834.18C2425.64 2846.82 2427.63 2857.83 2431.61 2867.21C2435.66 2876.58 2441.34 2883.86 2448.65 2889.05C2456.04 2894.23 2464.71 2896.82 2474.65 2896.82C2481.18 2896.82 2487.11 2895.69 2492.44 2893.41C2497.77 2891.14 2502.28 2887.88 2505.97 2883.61C2509.66 2879.35 2512.29 2874.24 2513.85 2868.27H2539C2537.57 2877.93 2534.06 2886.63 2528.45 2894.37C2522.91 2902.04 2515.56 2908.15 2506.4 2912.7C2497.31 2917.17 2486.72 2919.41 2474.65 2919.41ZM2708.28 2919.84C2697.91 2919.84 2688.5 2917.88 2680.05 2913.98C2671.59 2910 2664.88 2904.28 2659.91 2896.82C2654.94 2889.3 2652.45 2880.2 2652.45 2869.55C2652.45 2860.18 2654.3 2852.58 2657.99 2846.75C2661.69 2840.86 2666.62 2836.24 2672.8 2832.9C2678.98 2829.57 2685.8 2827.08 2693.26 2825.45C2700.79 2823.74 2708.35 2822.39 2715.95 2821.4C2725.89 2820.12 2733.95 2819.16 2740.13 2818.52C2746.38 2817.81 2750.93 2816.64 2753.77 2815.01C2756.68 2813.37 2758.14 2810.53 2758.14 2806.48V2805.63C2758.14 2795.12 2755.26 2786.95 2749.51 2781.13C2743.82 2775.3 2735.2 2772.39 2723.62 2772.39C2711.62 2772.39 2702.21 2775.02 2695.39 2780.28C2688.57 2785.53 2683.78 2791.14 2681.01 2797.11L2657.14 2788.59C2661.4 2778.64 2667.08 2770.9 2674.19 2765.36C2681.36 2759.75 2689.17 2755.84 2697.62 2753.64C2706.15 2751.37 2714.53 2750.23 2722.77 2750.23C2728.02 2750.23 2734.06 2750.87 2740.88 2752.15C2747.77 2753.36 2754.41 2755.88 2760.8 2759.71C2767.26 2763.55 2772.62 2769.34 2776.89 2777.08C2781.15 2784.82 2783.28 2795.19 2783.28 2808.19V2916H2758.14V2893.84H2756.86C2755.15 2897.39 2752.31 2901.19 2748.33 2905.24C2744.36 2909.29 2739.07 2912.73 2732.46 2915.57C2725.86 2918.41 2717.8 2919.84 2708.28 2919.84ZM2712.11 2897.25C2722.06 2897.25 2730.44 2895.3 2737.26 2891.39C2744.14 2887.48 2749.33 2882.44 2752.81 2876.26C2756.36 2870.08 2758.14 2863.59 2758.14 2856.77V2833.76C2757.07 2835.03 2754.73 2836.21 2751.1 2837.27C2747.55 2838.27 2743.43 2839.15 2738.75 2839.93C2734.13 2840.64 2729.62 2841.28 2725.22 2841.85C2720.88 2842.35 2717.37 2842.78 2714.67 2843.13C2708.14 2843.98 2702.03 2845.37 2696.35 2847.29C2690.74 2849.13 2686.19 2851.94 2682.71 2855.7C2679.3 2859.39 2677.6 2864.44 2677.6 2870.83C2677.6 2879.57 2680.83 2886.17 2687.29 2890.64C2693.82 2895.05 2702.1 2897.25 2712.11 2897.25ZM2984.71 2752.36V2773.67H2899.91V2752.36H2984.71ZM2924.62 2713.16H2949.76V2869.12C2949.76 2876.23 2950.79 2881.55 2952.85 2885.11C2954.98 2888.59 2957.68 2890.93 2960.95 2892.14C2964.29 2893.27 2967.8 2893.84 2971.5 2893.84C2974.27 2893.84 2976.54 2893.7 2978.32 2893.41C2980.09 2893.06 2981.51 2892.78 2982.58 2892.56L2987.69 2915.15C2985.99 2915.79 2983.61 2916.43 2980.55 2917.07C2977.5 2917.78 2973.63 2918.13 2968.94 2918.13C2961.84 2918.13 2954.88 2916.6 2948.06 2913.55C2941.31 2910.5 2935.7 2905.84 2931.23 2899.59C2926.82 2893.34 2924.62 2885.46 2924.62 2875.94V2713.16ZM3210.03 2849.1V2752.36H3235.17V2916H3210.03V2888.3H3208.32C3204.49 2896.61 3198.52 2903.68 3190.42 2909.5C3182.33 2915.25 3172.1 2918.13 3159.74 2918.13C3149.52 2918.13 3140.42 2915.89 3132.47 2911.42C3124.52 2906.87 3118.27 2900.06 3113.72 2890.96C3109.17 2881.8 3106.9 2870.26 3106.9 2856.34V2752.36H3132.04V2854.64C3132.04 2866.57 3135.38 2876.09 3142.06 2883.19C3148.81 2890.29 3157.4 2893.84 3167.84 2893.84C3174.09 2893.84 3180.45 2892.24 3186.91 2889.05C3193.44 2885.85 3198.91 2880.95 3203.32 2874.35C3207.79 2867.74 3210.03 2859.32 3210.03 2849.1ZM3434.2 2919.41C3418.43 2919.41 3404.83 2915.93 3393.4 2908.97C3382.04 2901.94 3373.26 2892.14 3367.08 2879.57C3360.98 2866.92 3357.92 2852.22 3357.92 2835.46C3357.92 2818.7 3360.98 2803.93 3367.08 2791.14C3373.26 2778.29 3381.86 2768.27 3392.87 2761.1C3403.95 2753.86 3416.87 2750.23 3431.64 2750.23C3440.17 2750.23 3448.58 2751.65 3456.89 2754.49C3465.2 2757.34 3472.77 2761.95 3479.58 2768.34C3486.4 2774.66 3491.84 2783.05 3495.88 2793.49C3499.93 2803.93 3501.96 2816.78 3501.96 2832.05V2842.7H3375.82V2820.97H3476.39C3476.39 2811.74 3474.54 2803.5 3470.85 2796.26C3467.23 2789.01 3462.04 2783.29 3455.3 2779.1C3448.62 2774.91 3440.74 2772.82 3431.64 2772.82C3421.63 2772.82 3412.97 2775.3 3405.65 2780.28C3398.41 2785.18 3392.83 2791.57 3388.92 2799.45C3385.02 2807.34 3383.06 2815.79 3383.06 2824.81V2839.3C3383.06 2851.65 3385.2 2862.13 3389.46 2870.72C3393.79 2879.25 3399.79 2885.74 3407.46 2890.22C3415.13 2894.62 3424.05 2896.82 3434.2 2896.82C3440.81 2896.82 3446.77 2895.9 3452.1 2894.05C3457.5 2892.14 3462.15 2889.3 3466.06 2885.53C3469.96 2881.7 3472.98 2876.94 3475.11 2871.26L3499.4 2878.07C3496.84 2886.31 3492.55 2893.56 3486.51 2899.81C3480.47 2905.99 3473.02 2910.82 3464.14 2914.3C3455.26 2917.7 3445.28 2919.41 3434.2 2919.41ZM3649.72 2817.56V2916H3624.58V2752.36H3648.87V2777.93H3651C3654.83 2769.62 3660.66 2762.95 3668.47 2757.9C3676.28 2752.79 3686.37 2750.23 3698.73 2750.23C3709.81 2750.23 3719.5 2752.51 3727.81 2757.05C3736.12 2761.53 3742.58 2768.34 3747.2 2777.51C3751.81 2786.6 3754.12 2798.1 3754.12 2812.02V2916H3728.98V2813.73C3728.98 2800.87 3725.64 2790.86 3718.97 2783.68C3712.29 2776.44 3703.13 2772.82 3691.48 2772.82C3683.46 2772.82 3676.28 2774.56 3669.96 2778.04C3663.71 2781.52 3658.78 2786.6 3655.15 2793.27C3651.53 2799.95 3649.72 2808.05 3649.72 2817.56Z" fill="#FA8F00"/>
<rect x="1892" y="932" width="232" height="300" fill="#C9EBFB"/>
<rect x="3547" y="1789" width="232" height="300" fill="#C9EBFB"/>
<rect x="2815" y="1789" width="232" height="300" fill="#C9EBFB"/>
<rect x="2349" y="1758" width="232" height="300" fill="#C9EBFB"/>
<rect x="1930" y="1789" width="232" height="300" fill="#C9EBFB"/>
<path d="M4102.49 2020.41C4087.72 2020.41 4074.75 2016.89 4063.6 2009.86C4052.52 2002.83 4043.86 1992.99 4037.61 1980.35C4031.43 1967.71 4028.34 1952.94 4028.34 1936.03C4028.34 1918.99 4031.43 1904.11 4037.61 1891.4C4043.86 1878.68 4052.52 1868.81 4063.6 1861.78C4074.75 1854.75 4087.72 1851.23 4102.49 1851.23C4117.26 1851.23 4130.19 1854.75 4141.27 1861.78C4152.42 1868.81 4161.08 1878.68 4167.26 1891.4C4173.51 1904.11 4176.64 1918.99 4176.64 1936.03C4176.64 1952.94 4173.51 1967.71 4167.26 1980.35C4161.08 1992.99 4152.42 2002.83 4141.27 2009.86C4130.19 2016.89 4117.26 2020.41 4102.49 2020.41ZM4102.49 1997.82C4113.71 1997.82 4122.94 1994.95 4130.19 1989.19C4137.43 1983.44 4142.79 1975.88 4146.27 1966.5C4149.75 1957.13 4151.49 1946.97 4151.49 1936.03C4151.49 1925.1 4149.75 1914.9 4146.27 1905.46C4142.79 1896.01 4137.43 1888.38 4130.19 1882.55C4122.94 1876.73 4113.71 1873.82 4102.49 1873.82C4091.27 1873.82 4082.03 1876.73 4074.79 1882.55C4067.55 1888.38 4062.18 1896.01 4058.7 1905.46C4055.22 1914.9 4053.48 1925.1 4053.48 1936.03C4053.48 1946.97 4055.22 1957.13 4058.7 1966.5C4062.18 1975.88 4067.55 1983.44 4074.79 1989.19C4082.03 1994.95 4091.27 1997.82 4102.49 1997.82ZM4361.18 2020.41C4347.54 2020.41 4335.51 2016.96 4325.06 2010.08C4314.62 2003.12 4306.46 1993.31 4300.56 1980.67C4294.67 1967.96 4291.72 1952.94 4291.72 1935.61C4291.72 1918.42 4294.67 1903.51 4300.56 1890.86C4306.46 1878.22 4314.66 1868.46 4325.17 1861.57C4335.68 1854.68 4347.83 1851.23 4361.61 1851.23C4372.26 1851.23 4380.68 1853.01 4386.85 1856.56C4393.1 1860.04 4397.86 1864.02 4401.13 1868.49C4404.47 1872.89 4407.06 1876.52 4408.91 1879.36H4411.04V1798.82H4436.18V2017H4411.89V1991.86H4408.91C4407.06 1994.84 4404.43 1998.61 4401.02 2003.15C4397.61 2007.62 4392.75 2011.64 4386.43 2015.19C4380.11 2018.67 4371.69 2020.41 4361.18 2020.41ZM4364.59 1997.82C4374.67 1997.82 4383.2 1995.2 4390.16 1989.94C4397.12 1984.61 4402.41 1977.26 4406.03 1967.89C4409.65 1958.44 4411.46 1947.54 4411.46 1935.18C4411.46 1922.97 4409.69 1912.28 4406.14 1903.12C4402.59 1893.88 4397.33 1886.71 4390.37 1881.6C4383.41 1876.41 4374.82 1873.82 4364.59 1873.82C4353.94 1873.82 4345.06 1876.55 4337.96 1882.02C4330.92 1887.42 4325.63 1894.77 4322.08 1904.07C4318.6 1913.31 4316.86 1923.68 4316.86 1935.18C4316.86 1946.83 4318.64 1957.41 4322.19 1966.93C4325.81 1976.37 4331.14 1983.9 4338.17 1989.51C4345.27 1995.05 4354.08 1997.82 4364.59 1997.82ZM4570.09 2017V1853.36H4595.24V2017H4570.09ZM4582.88 1826.09C4577.98 1826.09 4573.75 1824.42 4570.2 1821.08C4566.72 1817.75 4564.98 1813.73 4564.98 1809.05C4564.98 1804.36 4566.72 1800.35 4570.2 1797.01C4573.75 1793.67 4577.98 1792 4582.88 1792C4587.78 1792 4591.97 1793.67 4595.45 1797.01C4599 1800.35 4600.78 1804.36 4600.78 1809.05C4600.78 1813.73 4599 1817.75 4595.45 1821.08C4591.97 1824.42 4587.78 1826.09 4582.88 1826.09ZM4792.14 2020.41C4776.8 2020.41 4763.59 2016.79 4752.51 2009.54C4741.43 2002.3 4732.9 1992.32 4726.94 1979.61C4720.97 1966.89 4717.99 1952.37 4717.99 1936.03C4717.99 1919.41 4721.04 1904.75 4727.15 1892.04C4733.33 1879.25 4741.92 1869.27 4752.93 1862.1C4764.01 1854.86 4776.94 1851.23 4791.71 1851.23C4803.22 1851.23 4813.59 1853.36 4822.82 1857.62C4832.05 1861.89 4839.62 1867.85 4845.51 1875.52C4851.41 1883.19 4855.06 1892.14 4856.48 1902.37H4831.34C4829.42 1894.91 4825.16 1888.31 4818.56 1882.55C4812.02 1876.73 4803.22 1873.82 4792.14 1873.82C4782.34 1873.82 4773.74 1876.37 4766.36 1881.49C4759.04 1886.53 4753.32 1893.67 4749.2 1902.9C4745.16 1912.06 4743.13 1922.82 4743.13 1935.18C4743.13 1947.82 4745.12 1958.83 4749.1 1968.21C4753.15 1977.58 4758.83 1984.86 4766.14 1990.05C4773.53 1995.23 4782.19 1997.82 4792.14 1997.82C4798.67 1997.82 4804.6 1996.69 4809.93 1994.41C4815.25 1992.14 4819.76 1988.88 4823.46 1984.61C4827.15 1980.35 4829.78 1975.24 4831.34 1969.27H4856.48C4855.06 1978.93 4851.55 1987.63 4845.94 1995.37C4840.4 2003.04 4833.05 2009.15 4823.88 2013.7C4814.79 2018.17 4804.21 2020.41 4792.14 2020.41ZM5025.77 2020.84C5015.4 2020.84 5005.99 2018.88 4997.53 2014.98C4989.08 2011 4982.37 2005.28 4977.4 1997.82C4972.43 1990.3 4969.94 1981.2 4969.94 1970.55C4969.94 1961.18 4971.79 1953.58 4975.48 1947.75C4979.18 1941.86 4984.11 1937.24 4990.29 1933.9C4996.47 1930.57 5003.29 1928.08 5010.75 1926.45C5018.27 1924.74 5025.84 1923.39 5033.44 1922.4C5043.38 1921.12 5051.44 1920.16 5057.62 1919.52C5063.87 1918.81 5068.42 1917.64 5071.26 1916.01C5074.17 1914.37 5075.62 1911.53 5075.62 1907.48V1906.63C5075.62 1896.12 5072.75 1887.95 5067 1882.13C5061.31 1876.3 5052.68 1873.39 5041.11 1873.39C5029.1 1873.39 5019.69 1876.02 5012.88 1881.28C5006.06 1886.53 5001.26 1892.14 4998.49 1898.11L4974.63 1889.59C4978.89 1879.64 4984.57 1871.9 4991.68 1866.36C4998.85 1860.75 5006.66 1856.84 5015.11 1854.64C5023.64 1852.37 5032.02 1851.23 5040.25 1851.23C5045.51 1851.23 5051.55 1851.87 5058.37 1853.15C5065.25 1854.36 5071.9 1856.88 5078.29 1860.71C5084.75 1864.55 5090.11 1870.34 5094.37 1878.08C5098.64 1885.82 5100.77 1896.19 5100.77 1909.19V2017H5075.62V1994.84H5074.35C5072.64 1998.39 5069.8 2002.19 5065.82 2006.24C5061.85 2010.29 5056.55 2013.73 5049.95 2016.57C5043.34 2019.41 5035.28 2020.84 5025.77 2020.84ZM5029.6 1998.25C5039.54 1998.25 5047.93 1996.3 5054.74 1992.39C5061.63 1988.48 5066.82 1983.44 5070.3 1977.26C5073.85 1971.08 5075.62 1964.59 5075.62 1957.77V1934.76C5074.56 1936.03 5072.22 1937.21 5068.59 1938.27C5065.04 1939.27 5060.92 1940.15 5056.24 1940.93C5051.62 1941.64 5047.11 1942.28 5042.71 1942.85C5038.37 1943.35 5034.86 1943.78 5032.16 1944.13C5025.62 1944.98 5019.52 1946.37 5013.83 1948.29C5008.22 1950.13 5003.68 1952.94 5000.2 1956.7C4996.79 1960.39 4995.08 1965.44 4995.08 1971.83C4995.08 1980.57 4998.32 1987.17 5004.78 1991.64C5011.31 1996.05 5019.59 1998.25 5029.6 1998.25ZM5302.2 1853.36V1874.67H5217.39V1853.36H5302.2ZM5242.11 1814.16H5267.25V1970.12C5267.25 1977.23 5268.28 1982.55 5270.34 1986.11C5272.47 1989.59 5275.17 1991.93 5278.44 1993.14C5281.78 1994.27 5285.29 1994.84 5288.99 1994.84C5291.76 1994.84 5294.03 1994.7 5295.8 1994.41C5297.58 1994.06 5299 1993.78 5300.06 1993.56L5305.18 2016.15C5303.47 2016.79 5301.09 2017.43 5298.04 2018.07C5294.99 2018.78 5291.12 2019.13 5286.43 2019.13C5279.33 2019.13 5272.37 2017.6 5265.55 2014.55C5258.8 2011.5 5253.19 2006.84 5248.72 2000.59C5244.31 1994.34 5242.11 1986.46 5242.11 1976.94V1814.16ZM5527.52 1950.1V1853.36H5552.66V2017H5527.52V1989.3H5525.81C5521.98 1997.61 5516.01 2004.68 5507.91 2010.5C5499.82 2016.25 5489.59 2019.13 5477.23 2019.13C5467 2019.13 5457.91 2016.89 5449.96 2012.42C5442 2007.87 5435.75 2001.06 5431.21 1991.96C5426.66 1982.8 5424.39 1971.26 5424.39 1957.34V1853.36H5449.53V1955.64C5449.53 1967.57 5452.87 1977.09 5459.55 1984.19C5466.29 1991.29 5474.89 1994.84 5485.33 1994.84C5491.58 1994.84 5497.93 1993.24 5504.4 1990.05C5510.93 1986.85 5516.4 1981.95 5520.8 1975.35C5525.28 1968.74 5527.52 1960.32 5527.52 1950.1ZM5686.49 2017V1798.82H5818.17V1822.26H5712.91V1895.98H5811.35V1919.41H5712.91V1993.56H5819.87V2017H5686.49ZM5971.9 1918.56V2017H5946.75V1853.36H5971.04V1878.93H5973.17C5977.01 1870.62 5982.83 1863.95 5990.65 1858.9C5998.46 1853.79 6008.54 1851.23 6020.9 1851.23C6031.98 1851.23 6041.68 1853.51 6049.99 1858.05C6058.29 1862.53 6064.76 1869.34 6069.37 1878.51C6073.99 1887.6 6076.3 1899.1 6076.3 1913.02V2017H6051.16V1914.73C6051.16 1901.87 6047.82 1891.86 6041.14 1884.68C6034.47 1877.44 6025.3 1873.82 6013.66 1873.82C6005.63 1873.82 5998.46 1875.56 5992.14 1879.04C5985.89 1882.52 5980.95 1887.6 5977.33 1894.27C5973.71 1900.95 5971.9 1909.05 5971.9 1918.56Z" fill="#737370"/>
<rect x="5913" y="1789" width="232" height="300" fill="#C9EBFB"/>
<rect x="5181" y="1789" width="232" height="300" fill="#C9EBFB"/>
<rect x="4715" y="1758" width="232" height="300" fill="#C9EBFB"/>
<rect x="4249" y="1789" width="232" height="300" fill="#C9EBFB"/>
<rect x="3501" y="932" width="232" height="300" fill="#C9EBFB"/>
<rect x="2868" y="932" width="232" height="300" fill="#C9EBFB"/>
<rect x="2404" y="932" width="232" height="300" fill="#C9EBFB"/>
<path d="M430.818 996.364L370.307 1160H344.739L284.227 996.364H311.5L356.67 1126.76H358.375L403.545 996.364H430.818ZM524.621 1163.41C509.849 1163.41 496.887 1159.89 485.737 1152.86C474.657 1145.83 465.992 1135.99 459.742 1123.35C453.563 1110.71 450.474 1095.94 450.474 1079.03C450.474 1061.99 453.563 1047.11 459.742 1034.4C465.992 1021.68 474.657 1011.81 485.737 1004.78C496.887 997.749 509.849 994.233 524.621 994.233C539.394 994.233 552.32 997.749 563.4 1004.78C574.55 1011.81 583.215 1021.68 589.394 1034.4C595.644 1047.11 598.769 1061.99 598.769 1079.03C598.769 1095.94 595.644 1110.71 589.394 1123.35C583.215 1135.99 574.55 1145.83 563.4 1152.86C552.32 1159.89 539.394 1163.41 524.621 1163.41ZM524.621 1140.82C535.843 1140.82 545.076 1137.95 552.32 1132.19C559.565 1126.44 564.927 1118.88 568.407 1109.5C571.887 1100.13 573.627 1089.97 573.627 1079.03C573.627 1068.1 571.887 1057.9 568.407 1048.46C564.927 1039.01 559.565 1031.38 552.32 1025.55C545.076 1019.73 535.843 1016.82 524.621 1016.82C513.4 1016.82 504.167 1019.73 496.923 1025.55C489.678 1031.38 484.316 1039.01 480.836 1048.46C477.356 1057.9 475.616 1068.1 475.616 1079.03C475.616 1089.97 477.356 1100.13 480.836 1109.5C484.316 1118.88 489.678 1126.44 496.923 1132.19C504.167 1137.95 513.4 1140.82 524.621 1140.82ZM668.656 1160L618.798 996.364H645.218L680.587 1121.65H682.292L717.235 996.364H744.082L778.599 1121.22H780.303L815.673 996.364H842.093L792.235 1160H767.519L731.724 1034.29H729.167L693.371 1160H668.656ZM938.373 1163.41C922.606 1163.41 909.005 1159.93 897.571 1152.97C886.207 1145.94 877.436 1136.14 871.257 1123.57C865.149 1110.92 862.095 1096.22 862.095 1079.46C862.095 1062.7 865.149 1047.93 871.257 1035.14C877.436 1022.29 886.029 1012.27 897.038 1005.1C908.118 997.855 921.044 994.233 935.816 994.233C944.339 994.233 952.755 995.653 961.065 998.494C969.375 1001.34 976.939 1005.95 983.757 1012.34C990.575 1018.66 996.008 1027.05 1000.06 1037.49C1004.1 1047.93 1006.13 1060.78 1006.13 1076.05V1086.7H879.993V1064.97H980.561C980.561 1055.74 978.714 1047.5 975.021 1040.26C971.399 1033.01 966.214 1027.29 959.467 1023.1C952.791 1018.91 944.907 1016.82 935.816 1016.82C925.802 1016.82 917.137 1019.3 909.822 1024.28C902.578 1029.18 897.002 1035.57 893.096 1043.45C889.19 1051.34 887.237 1059.79 887.237 1068.81V1083.3C887.237 1095.65 889.368 1106.13 893.629 1114.72C897.961 1123.25 903.963 1129.74 911.633 1134.22C919.304 1138.62 928.217 1140.82 938.373 1140.82C944.978 1140.82 950.944 1139.9 956.271 1138.05C961.669 1136.14 966.321 1133.3 970.227 1129.53C974.133 1125.7 977.152 1120.94 979.282 1115.26L1003.57 1122.07C1001.02 1130.31 996.718 1137.56 990.681 1143.81C984.645 1149.99 977.187 1154.82 968.309 1158.3C959.431 1161.7 949.453 1163.41 938.373 1163.41ZM1069.52 941.818V1160H1044.37V941.818H1069.52ZM1231.48 1033.01L1208.89 1039.4C1207.47 1035.64 1205.37 1031.98 1202.6 1028.43C1199.91 1024.81 1196.21 1021.83 1191.52 1019.48C1186.84 1017.14 1180.84 1015.97 1173.52 1015.97C1163.51 1015.97 1155.16 1018.27 1148.49 1022.89C1141.88 1027.44 1138.58 1033.22 1138.58 1040.26C1138.58 1046.51 1140.85 1051.44 1145.4 1055.06C1149.94 1058.69 1157.04 1061.7 1166.7 1064.12L1190.99 1070.09C1205.62 1073.64 1216.52 1079.07 1223.7 1086.38C1230.87 1093.63 1234.46 1102.97 1234.46 1114.4C1234.46 1123.78 1231.76 1132.16 1226.36 1139.55C1221.03 1146.93 1213.58 1152.76 1203.99 1157.02C1194.4 1161.28 1183.25 1163.41 1170.54 1163.41C1153.85 1163.41 1140.03 1159.79 1129.1 1152.54C1118.16 1145.3 1111.23 1134.72 1108.32 1120.8L1132.19 1114.83C1134.46 1123.64 1138.75 1130.24 1145.08 1134.64C1151.47 1139.05 1159.81 1141.25 1170.11 1141.25C1181.83 1141.25 1191.13 1138.76 1198.02 1133.79C1204.98 1128.75 1208.46 1122.71 1208.46 1115.68C1208.46 1110 1206.48 1105.24 1202.5 1101.41C1198.52 1097.5 1192.41 1094.59 1184.17 1092.67L1156.9 1086.28C1141.92 1082.73 1130.91 1077.22 1123.88 1069.77C1116.92 1062.24 1113.44 1052.83 1113.44 1041.53C1113.44 1032.3 1116.03 1024.13 1121.21 1017.03C1126.47 1009.93 1133.61 1004.35 1142.63 1000.31C1151.72 996.257 1162.01 994.233 1173.52 994.233C1189.71 994.233 1202.43 997.784 1211.66 1004.89C1220.96 1011.99 1227.57 1021.36 1231.48 1033.01ZM1290.63 1161.7C1285.37 1161.7 1280.86 1159.82 1277.1 1156.06C1273.33 1152.29 1271.45 1147.78 1271.45 1142.53C1271.45 1137.27 1273.33 1132.76 1277.1 1129C1280.86 1125.23 1285.37 1123.35 1290.63 1123.35C1295.88 1123.35 1300.39 1125.23 1304.16 1129C1307.92 1132.76 1309.8 1137.27 1309.8 1142.53C1309.8 1146.01 1308.92 1149.2 1307.14 1152.12C1305.44 1155.03 1303.13 1157.37 1300.22 1159.15C1297.38 1160.85 1294.18 1161.7 1290.63 1161.7ZM1290.63 1040.26C1285.37 1040.26 1280.86 1038.37 1277.1 1034.61C1273.33 1030.85 1271.45 1026.34 1271.45 1021.08C1271.45 1015.82 1273.33 1011.31 1277.1 1007.55C1280.86 1003.79 1285.37 1001.9 1290.63 1001.9C1295.88 1001.9 1300.39 1003.79 1304.16 1007.55C1307.92 1011.31 1309.8 1015.82 1309.8 1021.08C1309.8 1024.56 1308.92 1027.76 1307.14 1030.67C1305.44 1033.58 1303.13 1035.92 1300.22 1037.7C1297.38 1039.4 1294.18 1040.26 1290.63 1040.26Z" fill="#737370"/>
<path d="M23.0114 2017V1853.36H47.3011V1878.08H49.0057C51.9886 1869.98 57.3864 1863.41 65.1989 1858.37C73.0114 1853.33 81.8182 1850.81 91.6193 1850.81C93.4659 1850.81 95.7741 1850.84 98.544 1850.91C101.314 1850.98 103.409 1851.09 104.83 1851.23V1876.8C103.977 1876.59 102.024 1876.27 98.9702 1875.84C95.9872 1875.35 92.8267 1875.1 89.4886 1875.1C81.5341 1875.1 74.4318 1876.77 68.1818 1880.1C62.0028 1883.37 57.1023 1887.92 53.4801 1893.74C49.929 1899.49 48.1534 1906.06 48.1534 1913.45V2017H23.0114ZM198.26 2020.41C182.493 2020.41 168.892 2016.93 157.457 2009.97C146.094 2002.94 137.322 1993.14 131.143 1980.57C125.036 1967.92 121.982 1953.22 121.982 1936.46C121.982 1919.7 125.036 1904.93 131.143 1892.14C137.322 1879.29 145.916 1869.27 156.925 1862.1C168.004 1854.86 180.93 1851.23 195.703 1851.23C204.226 1851.23 212.642 1852.65 220.952 1855.49C229.261 1858.34 236.825 1862.95 243.643 1869.34C250.462 1875.66 255.895 1884.05 259.943 1894.49C263.991 1904.93 266.016 1917.78 266.016 1933.05V1943.7H139.879V1921.97H240.447C240.447 1912.74 238.601 1904.5 234.908 1897.26C231.286 1890.01 226.101 1884.29 219.354 1880.1C212.678 1875.91 204.794 1873.82 195.703 1873.82C185.689 1873.82 177.024 1876.3 169.709 1881.28C162.464 1886.18 156.889 1892.57 152.983 1900.45C149.077 1908.34 147.124 1916.79 147.124 1925.81V1940.3C147.124 1952.65 149.254 1963.13 153.516 1971.72C157.848 1980.25 163.849 1986.74 171.52 1991.22C179.19 1995.62 188.104 1997.82 198.26 1997.82C204.865 1997.82 210.831 1996.9 216.158 1995.05C221.555 1993.14 226.207 1990.3 230.114 1986.53C234.02 1982.7 237.038 1977.94 239.169 1972.26L263.459 1979.07C260.902 1987.31 256.605 1994.56 250.568 2000.81C244.531 2006.99 237.074 2011.82 228.196 2015.3C219.318 2018.7 209.339 2020.41 198.26 2020.41ZM433.088 1853.36L372.576 2017H347.008L286.497 1853.36H313.77L358.94 1983.76H360.645L405.815 1853.36H433.088ZM529.022 2020.41C513.255 2020.41 499.654 2016.93 488.219 2009.97C476.855 2002.94 468.084 1993.14 461.905 1980.57C455.797 1967.92 452.743 1953.22 452.743 1936.46C452.743 1919.7 455.797 1904.93 461.905 1892.14C468.084 1879.29 476.678 1869.27 487.686 1862.1C498.766 1854.86 511.692 1851.23 526.465 1851.23C534.988 1851.23 543.404 1852.65 551.713 1855.49C560.023 1858.34 567.587 1862.95 574.405 1869.34C581.223 1875.66 586.657 1884.05 590.705 1894.49C594.753 1904.93 596.777 1917.78 596.777 1933.05V1943.7H470.641V1921.97H571.209C571.209 1912.74 569.363 1904.5 565.669 1897.26C562.047 1890.01 556.863 1884.29 550.115 1880.1C543.439 1875.91 535.556 1873.82 526.465 1873.82C516.451 1873.82 507.786 1876.3 500.471 1881.28C493.226 1886.18 487.651 1892.57 483.745 1900.45C479.838 1908.34 477.885 1916.79 477.885 1925.81V1940.3C477.885 1952.65 480.016 1963.13 484.277 1971.72C488.61 1980.25 494.611 1986.74 502.282 1991.22C509.952 1995.62 518.865 1997.82 529.022 1997.82C535.627 1997.82 541.593 1996.9 546.919 1995.05C552.317 1993.14 556.969 1990.3 560.875 1986.53C564.782 1982.7 567.8 1977.94 569.931 1972.26L594.221 1979.07C591.664 1987.31 587.367 1994.56 581.33 2000.81C575.293 2006.99 567.836 2011.82 558.958 2015.3C550.08 2018.7 540.101 2020.41 529.022 2020.41ZM635.023 2017V1853.36H659.313V1878.08H661.017C664 1869.98 669.398 1863.41 677.211 1858.37C685.023 1853.33 693.83 1850.81 703.631 1850.81C705.478 1850.81 707.786 1850.84 710.556 1850.91C713.326 1850.98 715.421 1851.09 716.841 1851.23V1876.8C715.989 1876.59 714.036 1876.27 710.982 1875.84C707.999 1875.35 704.838 1875.1 701.5 1875.1C693.546 1875.1 686.444 1876.77 680.194 1880.1C674.015 1883.37 669.114 1887.92 665.492 1893.74C661.941 1899.49 660.165 1906.06 660.165 1913.45V2017H635.023ZM862.553 1890.01L839.968 1896.4C838.548 1892.64 836.452 1888.98 833.683 1885.43C830.984 1881.81 827.29 1878.83 822.603 1876.48C817.915 1874.14 811.914 1872.97 804.599 1872.97C794.585 1872.97 786.239 1875.27 779.563 1879.89C772.958 1884.44 769.656 1890.22 769.656 1897.26C769.656 1903.51 771.928 1908.44 776.474 1912.06C781.019 1915.69 788.121 1918.7 797.781 1921.12L822.07 1927.09C836.701 1930.64 847.603 1936.07 854.776 1943.38C861.95 1950.63 865.536 1959.97 865.536 1971.4C865.536 1980.78 862.837 1989.16 857.44 1996.55C852.113 2003.93 844.656 2009.76 835.067 2014.02C825.479 2018.28 814.329 2020.41 801.616 2020.41C784.925 2020.41 771.112 2016.79 760.174 2009.54C749.237 2002.3 742.312 1991.72 739.4 1977.8L763.263 1971.83C765.536 1980.64 769.833 1987.24 776.154 1991.64C782.546 1996.05 790.891 1998.25 801.19 1998.25C812.908 1998.25 822.212 1995.76 829.102 1990.79C836.062 1985.75 839.542 1979.71 839.542 1972.68C839.542 1967 837.553 1962.24 833.576 1958.41C829.599 1954.5 823.491 1951.59 815.252 1949.67L787.979 1943.28C772.994 1939.73 761.985 1934.22 754.954 1926.77C747.994 1919.24 744.513 1909.83 744.513 1898.53C744.513 1889.3 747.106 1881.13 752.29 1874.03C757.546 1866.93 764.684 1861.35 773.704 1857.31C782.795 1853.26 793.093 1851.23 804.599 1851.23C820.792 1851.23 833.505 1854.78 842.738 1861.89C852.042 1868.99 858.647 1878.36 862.553 1890.01ZM971.99 2020.41C956.223 2020.41 942.623 2016.93 931.188 2009.97C919.824 2002.94 911.053 1993.14 904.874 1980.57C898.766 1967.92 895.712 1953.22 895.712 1936.46C895.712 1919.7 898.766 1904.93 904.874 1892.14C911.053 1879.29 919.647 1869.27 930.655 1862.1C941.735 1854.86 954.661 1851.23 969.434 1851.23C977.956 1851.23 986.373 1852.65 994.682 1855.49C1002.99 1858.34 1010.56 1862.95 1017.37 1869.34C1024.19 1875.66 1029.63 1884.05 1033.67 1894.49C1037.72 1904.93 1039.75 1917.78 1039.75 1933.05V1943.7H913.61V1921.97H1014.18C1014.18 1912.74 1012.33 1904.5 1008.64 1897.26C1005.02 1890.01 999.831 1884.29 993.084 1880.1C986.408 1875.91 978.525 1873.82 969.434 1873.82C959.419 1873.82 950.755 1876.3 943.439 1881.28C936.195 1886.18 930.62 1892.57 926.713 1900.45C922.807 1908.34 920.854 1916.79 920.854 1925.81V1940.3C920.854 1952.65 922.985 1963.13 927.246 1971.72C931.578 1980.25 937.58 1986.74 945.25 1991.22C952.921 1995.62 961.834 1997.82 971.99 1997.82C978.596 1997.82 984.561 1996.9 989.888 1995.05C995.286 1993.14 999.938 1990.3 1003.84 1986.53C1007.75 1982.7 1010.77 1977.94 1012.9 1972.26L1037.19 1979.07C1034.63 1987.31 1030.34 1994.56 1024.3 2000.81C1018.26 2006.99 1010.8 2011.82 1001.93 2015.3C993.049 2018.7 983.07 2020.41 971.99 2020.41ZM1139.78 2020.41C1126.15 2020.41 1114.11 2016.96 1103.67 2010.08C1093.23 2003.12 1085.06 1993.31 1079.16 1980.67C1073.27 1967.96 1070.32 1952.94 1070.32 1935.61C1070.32 1918.42 1073.27 1903.51 1079.16 1890.86C1085.06 1878.22 1093.26 1868.46 1103.77 1861.57C1114.28 1854.68 1126.43 1851.23 1140.21 1851.23C1150.86 1851.23 1159.28 1853.01 1165.46 1856.56C1171.71 1860.04 1176.46 1864.02 1179.73 1868.49C1183.07 1872.89 1185.66 1876.52 1187.51 1879.36H1189.64V1798.82H1214.78V2017H1190.49V1991.86H1187.51C1185.66 1994.84 1183.03 1998.61 1179.63 2003.15C1176.22 2007.62 1171.35 2011.64 1165.03 2015.19C1158.71 2018.67 1150.29 2020.41 1139.78 2020.41ZM1143.19 1997.82C1153.28 1997.82 1161.8 1995.2 1168.76 1989.94C1175.72 1984.61 1181.01 1977.26 1184.63 1967.89C1188.25 1958.44 1190.07 1947.54 1190.07 1935.18C1190.07 1922.97 1188.29 1912.28 1184.74 1903.12C1181.19 1893.88 1175.93 1886.71 1168.97 1881.6C1162.01 1876.41 1153.42 1873.82 1143.19 1873.82C1132.54 1873.82 1123.66 1876.55 1116.56 1882.02C1109.53 1887.42 1104.23 1894.77 1100.68 1904.07C1097.2 1913.31 1095.46 1923.68 1095.46 1935.18C1095.46 1946.83 1097.24 1957.41 1100.79 1966.93C1104.41 1976.37 1109.74 1983.9 1116.77 1989.51C1123.87 1995.05 1132.68 1997.82 1143.19 1997.82ZM1282.64 2018.7C1277.39 2018.7 1272.88 2016.82 1269.11 2013.06C1265.35 2009.29 1263.47 2004.78 1263.47 1999.53C1263.47 1994.27 1265.35 1989.76 1269.11 1986C1272.88 1982.23 1277.39 1980.35 1282.64 1980.35C1287.9 1980.35 1292.41 1982.23 1296.17 1986C1299.94 1989.76 1301.82 1994.27 1301.82 1999.53C1301.82 2003.01 1300.93 2006.2 1299.16 2009.12C1297.45 2012.03 1295.14 2014.37 1292.23 2016.15C1289.39 2017.85 1286.19 2018.7 1282.64 2018.7ZM1282.64 1897.26C1277.39 1897.26 1272.88 1895.37 1269.11 1891.61C1265.35 1887.85 1263.47 1883.34 1263.47 1878.08C1263.47 1872.82 1265.35 1868.31 1269.11 1864.55C1272.88 1860.79 1277.39 1858.9 1282.64 1858.9C1287.9 1858.9 1292.41 1860.79 1296.17 1864.55C1299.94 1868.31 1301.82 1872.82 1301.82 1878.08C1301.82 1881.56 1300.93 1884.76 1299.16 1887.67C1297.45 1890.58 1295.14 1892.92 1292.23 1894.7C1289.39 1896.4 1286.19 1897.26 1282.64 1897.26Z" fill="#737370"/>
<path d="M3320.31 784.303C3323.24 781.374 3323.24 776.626 3320.31 773.697L3272.58 725.967C3269.65 723.038 3264.9 723.038 3261.97 725.967C3259.05 728.896 3259.05 733.645 3261.97 736.574L3304.4 779L3261.97 821.426C3259.05 824.355 3259.05 829.104 3261.97 832.033C3264.9 834.962 3269.65 834.962 3272.58 832.033L3320.31 784.303ZM1724 786.5H3315.01V771.5H1724V786.5Z" fill="#82D1F5"/>
<path d="M1779.7 1304.7C1776.77 1307.63 1776.77 1312.37 1779.7 1315.3L1827.43 1363.03C1830.36 1365.96 1835.1 1365.96 1838.03 1363.03C1840.96 1360.1 1840.96 1355.36 1838.03 1352.43L1795.61 1310L1838.03 1267.57C1840.96 1264.64 1840.96 1259.9 1838.03 1256.97C1835.1 1254.04 1830.36 1254.04 1827.43 1256.97L1779.7 1304.7ZM3376.01 1302.5L1785 1302.5V1317.5L3376.01 1317.5V1302.5Z" fill="#82D1F5"/>
<line x1="1731.5" y1="779" x2="1731.5" y2="894" stroke="#82D1F5" stroke-width="15"/>
<line x1="3372.5" y1="1195" x2="3372.5" y2="1310" stroke="#82D1F5" stroke-width="15"/>
<path d="M2683.7 661.303C2686.63 664.232 2691.37 664.232 2694.3 661.303L2742.03 613.574C2744.96 610.645 2744.96 605.896 2742.03 602.967C2739.1 600.038 2734.36 600.038 2731.43 602.967L2689 645.393L2646.57 602.967C2643.64 600.038 2638.9 600.038 2635.97 602.967C2633.04 605.896 2633.04 610.645 2635.97 613.574L2683.7 661.303ZM2681.5 363V656H2696.5V363H2681.5Z" fill="#737370"/>
<path d="M2683.7 1731.3C2686.63 1734.23 2691.37 1734.23 2694.3 1731.3L2742.03 1683.57C2744.96 1680.64 2744.96 1675.9 2742.03 1672.97C2739.1 1670.04 2734.36 1670.04 2731.43 1672.97L2689 1715.39L2646.57 1672.97C2643.64 1670.04 2638.9 1670.04 2635.97 1672.97C2633.04 1675.9 2633.04 1680.64 2635.97 1683.57L2683.7 1731.3ZM2681.5 1433V1726H2696.5V1433H2681.5Z" fill="#737370"/>
<path d="M2683.7 2477.3C2686.63 2480.23 2691.37 2480.23 2694.3 2477.3L2742.03 2429.57C2744.96 2426.64 2744.96 2421.9 2742.03 2418.97C2739.1 2416.04 2734.36 2416.04 2731.43 2418.97L2689 2461.39L2646.57 2418.97C2643.64 2416.04 2638.9 2416.04 2635.97 2418.97C2633.04 2421.9 2633.04 2426.64 2635.97 2429.57L2683.7 2477.3ZM2681.5 2179V2472H2696.5V2179H2681.5Z" fill="#737370"/>
<path d="M5060.32 1732.13C5063.71 1729.74 5064.52 1725.07 5062.13 1721.68L5023.25 1666.5C5020.86 1663.12 5016.19 1662.31 5012.8 1664.69C5009.41 1667.08 5008.6 1671.76 5010.99 1675.14L5045.55 1724.19L4996.5 1758.75C4993.12 1761.14 4992.31 1765.81 4994.69 1769.2C4997.08 1772.59 5001.76 1773.4 5005.14 1771.01L5060.32 1732.13ZM3363.72 1440.39L5054.72 1733.39L5057.28 1718.61L3366.28 1425.61L3363.72 1440.39Z" fill="#737370"/>
<path d="M2958.21 1526L2984 1546.17L2872.16 1726H2846.37L2784 1628.58L2809.79 1601.75L2859.26 1653.25L2958.21 1526Z" fill="#737370"/>
<path d="M5318.46 1626L5380.82 1688.37L5343.37 1725.82L5281 1663.46L5218.46 1726L5181 1688.54L5243.54 1626L5181 1563.46L5218.46 1526L5281 1588.54L5343.54 1526.18L5381 1563.63L5318.46 1626Z" fill="#737370"/>
</svg>
